<?xml version="1.0" encoding="UTF-8"?>
<svg xmlns="http://www.w3.org/2000/svg" viewBox="0 0 512 512" width="512" height="512">
  <rect width="512" height="512" rx="112.64" ry="112.64" fill="#A9B89A"></rect>
  <g transform="translate(5.827 416.808) scale(0.48290)">
    <path d="M312.99-501.46L312.99-501.46Q320.31-501.46 320.31-493.16L320.31-493.16Q320.31-490.23 317.87-487.79L317.87-487.79Q276.86-446.78 223.14-446.78L223.14-446.78Q210.45-446.78 194.82-461.18Q179.20-475.59 179.20-502.93Q179.20-530.27 212.40-563.72Q245.61-597.17 304.93-627.20Q364.26-657.23 453.13-680.66Q541.99-704.10 612.79-704.10Q683.59-704.10 729.00-692.63Q774.41-681.15 800.05-664.31Q825.68-647.46 842.29-626.46L842.29-626.46Q870.12-591.31 870.12-554.93Q870.12-518.55 846.68-479.98Q823.24-441.41 785.89-411.38Q748.54-381.35 700.20-355.47L700.20-355.47Q609.86-307.62 506.84-285.16L506.84-285.16Q524.41-267.09 581.30-194.58Q638.18-122.07 685.30-73.24Q732.42-24.41 758.30-24.41L758.30-24.41L774.41-30.27Q779.79-30.27 779.79-26.12Q779.79-21.97 761.96-2.20Q744.14 17.58 730.96 27.83Q717.77 38.09 695.07 38.09Q672.36 38.09 643.55 16.11Q614.75-5.86 580.57-45.90Q546.39-85.94 519.04-121.34Q491.70-156.74 456.54-204.83Q421.39-252.93 408.20-270.02L408.20-270.02Q403.32-262.21 383.30-231.20Q363.28-200.20 354.00-185.55Q344.73-170.90 327.15-142.82Q309.57-114.75 299.80-97.66L299.80-97.66Q272.95-52.25 262.45-29.79Q251.95-7.32 228.03-7.32L228.03-7.32L210.94-7.81L196.29-7.32Q166.02-7.32 166.02-32.71L166.02-32.71Q166.02-51.76 182.37-87.16Q198.73-122.56 355.96-351.32Q513.18-580.08 529.30-595.46Q545.41-610.84 553.22-612.79L553.22-612.79Q559.08-617.19 561.04-617.19L561.04-617.19L569.82-615.72L578.13-617.19Q582.52-617.19 585.94-613.53Q589.36-609.86 590.82-608.89L590.82-608.89Q611.33-593.75 611.33-583.50Q611.33-573.24 606.20-563.72Q601.07-554.20 578.13-521.00Q555.18-487.79 517.82-434.81Q480.47-381.84 463.87-357.91L463.87-357.91Q503.91-359.86 560.06-382.32Q616.21-404.79 665.28-436.28Q714.36-467.77 749.27-504.64Q784.18-541.50 784.18-568.85L784.18-568.85Q784.18-583.50 769.04-595.46Q753.91-607.42 730.96-614.26L730.96-614.26Q685.06-627.93 627.44-627.93Q569.82-627.93 481.45-603.03Q393.07-578.13 352.54-555.42Q312.01-532.71 293.95-516.85Q275.88-500.98 275.88-494.63L275.88-494.63Q275.88-491.21 285.89-491.21Q295.90-491.21 303.71-496.34Q311.52-501.46 312.99-501.46Z" fill="#F0EFE7"></path>
  </g>
</svg>